# xmcd CD database file
#
# Track frame offsets:
#	150
#	16879
#	32640
#	52320
#	67379
#	87849
#	109743
#	133256
#	150283
#	170636
#	188329
#
# Disc length: 2994 seconds
#
# Revision: 0
# Processed by: cddbd v1.4PL0 Copyright (c) Steve Scherf et al.
# Submitted via: CDex 1.50beta9
#
DISCID=910bb00b
DTITLE=Ziroq - Ziroq
DYEAR=2001
DGENRE=Rhythmic Soul
TTITLE0=Tierra Del sur
TTITLE1=Que Pena
TTITLE2=Ziroq
TTITLE3=Closer To Me
TTITLE4=Contando Cacabuetes
TTITLE5=Voices
TTITLE6=Pobre Corazon
TTITLE7=Reina
TTITLE8=Prisionero
TTITLE9=Patio Del Moro
TTITLE10=Nomad/Cerca de Mi
EXTD=YEAR: 2001
EXTT0=
EXTT1=
EXTT2=
EXTT3=
EXTT4=
EXTT5=
EXTT6=
EXTT7=
EXTT8=
EXTT9=
EXTT10=
PLAYORDER=
